# xmcd
#
# Track frame offsets:
#	150
#	20269
#	36737
#	52393
#	70120
#	87704
#	105139
#	120208
#	133602
#	145716
#	160749
#	175308
#	191856
#	207975
#
# Disc length: 2949 seconds
#
# Revision: 1
# Processed by: cddbd v1.5.1PL0 Copyright (c) Steve Scherf et al.
# Submitted via: audiograbber 1.83.01
#
DISCID=c80b830e
DTITLE=Johnny CASH - The man comes around
DYEAR=1900
DGENRE=Country
TTITLE0=The man comes around
TTITLE1=Hurt
TTITLE2=Give my love to Rose
TTITLE3=Bridge ober troubled water
TTITLE4=Hung my head
TTITLE5=First time I ever saw your face
TTITLE6=Perosnal Jesus
TTITLE7=In my life
TTITLE8=Sam Hall
TTITLE9=Danny Boy
TTITLE10=Desperado
TTITLE11=Tear stained letter
TTITLE12=Streets of Laredo
TTITLE13=We'll meet again
EXTD=
EXTT0=
EXTT1=
EXTT2=
EXTT3=
EXTT4=
EXTT5=
EXTT6=
EXTT7=
EXTT8=
EXTT9=
EXTT10=
EXTT11=
EXTT12=
EXTT13=
PLAYORDER=
